<?xml version="1.0" encoding="utf-8"?>
<!-- Generator: Adobe Illustrator 24.1.1, SVG Export Plug-In . SVG Version: 6.00 Build 0)  -->
<svg version="1.1" id="Слой_1" xmlns="http://www.w3.org/2000/svg" xmlns:xlink="http://www.w3.org/1999/xlink" x="0px" y="0px"
	 viewBox="0 0 640 480" style="enable-background:new 0 0 640 480;" xml:space="preserve">
<style type="text/css">
	.st0{fill:#EB4D4B;}
	.st1{font-family:'Roboto-Regular';}
	.st2{font-size:40px;}
</style>
<text transform="matrix(1 0 0 1 266.5319 226.3618)" class="st0 st1 st2">Cosmic</text>
<g>
	<path class="st0" d="M209.2,200.1c-1.1,0-2,0.9-2,2v18.8c0,1.1,0.9,2,2,2c1.1,0,2-0.9,2-2V202C211.1,200.9,210.3,200.1,209.2,200.1
		z"/>
	<path class="st0" d="M218.5,194.4c-1.1,0-2,0.9-2,2v30.1c0,1.1,0.9,2,2,2c1.1,0,2-0.9,2-2v-30.1
		C220.5,195.3,219.6,194.4,218.5,194.4z"/>
	<path class="st0" d="M227.8,186.6c-1.1,0-2,0.9-2,2v45.8c0,1.1,0.9,2,2,2c1.1,0,2-0.9,2-2v-45.8
		C229.8,187.5,228.9,186.6,227.8,186.6z"/>
	<path class="st0" d="M237.2,198c-1.1,0-2,0.9-2,2v23c0,1.1,0.9,2,2,2c1.1,0,2-0.9,2-2v-23C239.1,198.8,238.2,198,237.2,198z"/>
	<path class="st0" d="M246.5,200.1c-1.1,0-2,0.9-2,2v18.8c0,1.1,0.9,2,2,2c1.1,0,2-0.9,2-2V202C248.4,200.9,247.6,200.1,246.5,200.1
		z"/>
	<path class="st0" d="M255.8,206.3c-1.1,0-2,0.9-2,2v6.3c0,1.1,0.9,2,2,2c1.1,0,2-0.9,2-2v-6.3C257.8,207.2,256.9,206.3,255.8,206.3
		z"/>
</g>
</svg>
